<?xml version="1.0" encoding="utf-8"?>
<!-- Generator: Adobe Illustrator 16.0.0, SVG Export Plug-In . SVG Version: 6.00 Build 0)  -->
<!DOCTYPE svg PUBLIC "-//W3C//DTD SVG 1.1//EN" "http://www.w3.org/Graphics/SVG/1.1/DTD/svg11.dtd">
<svg version="1.1" id="Layer_1" xmlns="http://www.w3.org/2000/svg" xmlns:xlink="http://www.w3.org/1999/xlink" x="0px" y="0px"
	 width="100px" height="100px" viewBox="0 0 100 100" enable-background="new 0 0 100 100" xml:space="preserve">
<path fill="#595959" d="M66.699,46.891"/>
<path fill="#595959" d="M38.335,43.733c-5.849,0-11.698,2.86-17.548,4.581v6.685c5.849-1.719,11.698-4.581,17.548-4.581
	c8.356,0,16.713,5.85,25.068,5.85c5.851,0,11.698-2.863,17.549-4.582v-6.685c-5.851,1.72-11.698,4.582-17.549,4.582
	C55.047,49.583,46.691,43.733,38.335,43.733z"/>
<path fill="#595959" d="M38.335,57.102c-5.849,0-11.698,2.861-17.548,4.582v6.686c5.849-1.721,11.698-4.582,17.548-4.582
	c8.356,0,16.713,5.85,25.068,5.85c5.851,0,11.698-2.861,17.549-4.58v-6.688c-5.851,1.721-11.698,4.582-17.549,4.582
	C55.047,62.951,46.691,57.102,38.335,57.102z"/>
<path fill="#595959" d="M63.403,36.212c-8.356,0-16.712-5.85-25.068-5.85c-5.85,0-11.699,2.861-17.548,4.581v6.685
	c5.849-1.72,11.698-4.581,17.548-4.581c8.356,0,16.713,5.849,25.068,5.849c5.851,0,11.698-2.861,17.549-4.582v-6.684
	C75.102,33.35,69.254,36.212,63.403,36.212z"/>
</svg>
