<?xml version="1.0" encoding="utf-8"?>
<!-- Generator: Adobe Illustrator 18.0.0, SVG Export Plug-In . SVG Version: 6.00 Build 0)  -->
<!DOCTYPE svg PUBLIC "-//W3C//DTD SVG 1.1//EN" "http://www.w3.org/Graphics/SVG/1.1/DTD/svg11.dtd">
<svg version="1.1" xmlns="http://www.w3.org/2000/svg" xmlns:xlink="http://www.w3.org/1999/xlink" x="0px" y="0px"
	 viewBox="0 0 100 100" enable-background="new 0 0 100 100" xml:space="preserve">
<g id="Calque_3">
</g>
<g id="Layer_1">
	<path fill="#595959" d="M65.8,43.9"/>
	<g>
		<path fill="#595959" d="M24.4,48.3c-2.6,0.9-5.2,1.9-7.7,2.8l0.7,4.3c2.7-0.9,5.4-1.9,8-2.9C24.5,51.4,24.2,49.8,24.4,48.3z"/>
		<path fill="#595959" d="M70.3,43.3c-1.8,0.5-3.6,0.9-5.4,1.2c-2.5,0.4-5,0.5-7.6,0.5c0.5,1.4,0.4,3-0.3,4.3c2.9,0,5.7-0.1,8.5-0.5
			c2-0.3,4-0.8,5.9-1.4C70.6,46.3,70.2,44.7,70.3,43.3z"/>
		<path fill="#595959" d="M48.4,44.7c-4.2-0.2-8.3-0.2-12.4,0.4c-1.1,0.2-2.3,0.4-3.4,0.7c1,1.1,1.5,2.7,1.3,4.2
			c0.9-0.2,1.8-0.4,2.7-0.5c3.8-0.6,7.8-0.6,11.7-0.4C47.9,47.6,47.9,46,48.4,44.7z"/>
		<path fill="#595959" d="M79.9,44.6c1.7-0.6,3.4-1.2,5.1-1.8l-0.7-4.3c-1.9,0.6-3.7,1.3-5.6,2C79.7,41.5,80.1,43.1,79.9,44.6z"/>
	</g>
</g>
<g id="Calque_2">
	<path fill="#595959" d="M75.2,37.8c-0.5,0-1,0.1-1.5,0.1c-3.3,0.8-5.3,4.1-4.5,7.4c0.7,2.7,3.1,4.7,5.9,4.7c0.5,0,1-0.1,1.5-0.1
		c1.6-0.4,3-1.4,3.8-2.8c0.8-1.4,1.1-3,0.7-4.7C80.5,39.7,78.1,37.8,75.2,37.8z M77.7,45.4c-0.4,0.7-1.1,1.2-1.8,1.3
		c-1.6,0.4-3.2-0.6-3.6-2.1c-0.4-1.6,0.5-3.1,2.1-3.6c0.3-0.1,0.4-0.1,0.7-0.1c1.3,0,2.5,0.9,2.9,2.2C78.2,44,78.1,44.8,77.7,45.4z"
		/>
	<path fill="#595959" d="M52.8,40.8c-0.5,0-1,0.1-1.5,0.1c-3.3,0.8-5.3,4.1-4.5,7.4c0.7,2.7,3.1,4.7,5.9,4.7c0.5,0,1-0.1,1.5-0.1
		c1.6-0.4,3-1.4,3.8-2.8c0.8-1.4,1.1-3,0.7-4.7C58.1,42.7,55.6,40.8,52.8,40.8z M55.3,48.5c-0.4,0.7-1.1,1.2-1.8,1.3
		c-1.6,0.4-3.2-0.6-3.6-2.1c-0.4-1.6,0.5-3.1,2.1-3.6c0.3-0.1,0.4-0.1,0.7-0.1c1.3,0,2.5,0.9,2.9,2.2C55.8,47.1,55.7,47.9,55.3,48.5
		z"/>
	<path fill="#595959" d="M29.2,43.1c-0.5,0-1,0.1-1.5,0.1c-3.3,0.8-5.3,4.1-4.5,7.4c0.7,2.7,3.1,4.7,5.9,4.7c0.5,0,1-0.1,1.5-0.1
		c1.6-0.4,3-1.4,3.8-2.8c0.8-1.4,1.1-3,0.7-4.7C34.5,45,32.1,43.1,29.2,43.1z M31.7,50.8c-0.4,0.7-1.1,1.2-1.8,1.3
		c-1.6,0.4-3.2-0.6-3.6-2.1c-0.4-1.6,0.5-3.1,2.1-3.6c0.3-0.1,0.4-0.1,0.7-0.1c1.3,0,2.5,0.9,2.9,2.2C32.2,49.3,32.1,50.1,31.7,50.8
		z"/>
</g>
</svg>
