<?xml version="1.0" encoding="utf-8"?>
<!-- Generator: Adobe Illustrator 18.0.0, SVG Export Plug-In . SVG Version: 6.00 Build 0)  -->
<!DOCTYPE svg PUBLIC "-//W3C//DTD SVG 1.1//EN" "http://www.w3.org/Graphics/SVG/1.1/DTD/svg11.dtd">
<svg version="1.1" id="Calque_2" xmlns="http://www.w3.org/2000/svg" xmlns:xlink="http://www.w3.org/1999/xlink" x="0px" y="0px"
	 viewBox="0 0 100 100" enable-background="new 0 0 100 100" xml:space="preserve">
<path fill="#595959" d="M53.7,63.2c-0.5,0-1,0.1-1.5,0.1c-3.3,0.8-5.3,4.1-4.5,7.4c0.7,2.7,3.1,4.7,5.9,4.7c0.5,0,1-0.1,1.5-0.1
	c1.6-0.4,3-1.4,3.8-2.8c0.8-1.4,1.1-3,0.7-4.7C59,65.1,56.6,63.2,53.7,63.2z M56.2,70.9c-0.4,0.7-1.1,1.2-1.8,1.3
	c-1.6,0.4-3.2-0.6-3.6-2.1c-0.4-1.6,0.5-3.1,2.1-3.6c0.3-0.1,0.4-0.1,0.7-0.1c1.3,0,2.5,0.9,2.9,2.2C56.7,69.5,56.6,70.3,56.2,70.9z
	"/>
<path fill="#595959" d="M82,21.3c-0.9-0.9-2-1.3-3.2-1.3c-1.2,0-2.3,0.4-3.1,1.3l-2.4,2.3c-0.7-0.5-1.3-1-2-1.4
	c-5.8-3.7-12.5-5.6-19.6-5.6c-19.3,0.1-35,14.9-35,33.1c0,7.4,2.6,14.3,7,19.8c-0.1,0.3-0.3,0.6-0.4,1c-0.4,1.2-1.3,2.1-2.5,2.5
	l-2.8,1c-0.5,0.1-0.9,0.5-1.1,1c-0.2,0.5-0.2,1,0.1,1.6c1.5,2.9,4.4,4.7,7.6,4.7c0.4,0,0.8,0,1.3-0.1l0.2-0.1c2.7-0.4,5.4-1.5,7.6-3
	c5.3,3,11.5,4.7,18.1,4.7c9.3,0,18-3.4,24.6-9.5c0.8-0.7,1.6-1.5,2.2-2.3c4.7-5,6.1-9.9,3.8-13.5c-3-4.7-9-5.4-13.7-6
	c-2.4-0.3-5-0.6-6.1-1.4c-0.4-0.2-0.6-0.6-0.7-1l5.3-5.6c0.8-0.1,1.6-0.3,2.4-0.4c3.6-0.6,6.9-1.1,8.1-3.6c1.3-2.6,1.6-5.4,1-8.1
	l3.6-3.8C83.8,25.9,83.7,23.1,82,21.3z M20.4,49.6c0-16.1,14.1-29.3,31.3-29.3c6.3,0,12.4,1.8,17.6,5c0.4,0.3,0.9,0.6,1.3,0.9
	L41.3,53.8l0,0l0,0L30.4,64.7l-2.4,0.8c-0.7,0.2-1.4,0.6-2,1C22.5,61.7,20.4,55.9,20.4,49.6z M42.6,57.8l3,3L37,69.2l-3-3L42.6,57.8
	z M25.4,77.3l-0.2,0.1c-1.3,0.1-2.5-0.1-3.5-0.9l0.2-0.1c2.3-0.7,4.1-2.6,4.9-4.9c0.4-1.2,1.3-2.1,2.5-2.5l1.7-0.6l3.6,3.6
	C32.3,74.8,29,76.8,25.4,77.3z M68.1,55.1c4.2,0.5,9,1,11,4.3c1.9,3-2.1,7.6-3.4,9c-0.7,0.7-1.3,1.4-2,2.1
	c-5.9,5.5-13.7,8.5-22.1,8.5c-5.5,0-10.6-1.3-15-3.6c0.7-0.7,1.3-1.5,1.9-2.3l11-11l9.6-10.1c0.4,0.4,0.7,0.9,1.3,1.2
	C62.2,54.4,65.1,54.7,68.1,55.1z M74.1,37.8c-0.2,0.4-1.5,0.8-2.8,1.1l3.6-3.9C74.9,36,74.6,37,74.1,37.8z M79.4,25.1l-31.3,33
	l-2.9-2.9l33-31.3c0.1-0.1,0.4-0.2,0.6-0.2c0.1,0,0.4,0,0.6,0.2C79.7,24.3,79.7,24.8,79.4,25.1z"/>
<path fill="#595959" d="M30.3,44.8c-0.5,0-1,0.1-1.5,0.1c-3.3,0.8-5.3,4.1-4.5,7.4c0.7,2.7,3.1,4.7,5.9,4.7c0.5,0,1-0.1,1.5-0.1
	c1.6-0.4,3-1.4,3.8-2.8c0.8-1.4,1.1-3,0.7-4.7C35.6,46.7,33.2,44.8,30.3,44.8z M32.8,52.4c-0.4,0.7-1.1,1.2-1.8,1.3
	c-1.6,0.4-3.2-0.6-3.6-2.1c-0.4-1.6,0.5-3.1,2.1-3.6C29.9,48,30,48,30.3,48c1.3,0,2.5,0.9,2.9,2.2C33.3,51,33.3,51.8,32.8,52.4z"/>
<path fill="#595959" d="M36.4,28.9c-0.5,0-1,0.1-1.5,0.1c-3.3,0.8-5.3,4.1-4.5,7.4c0.7,2.7,3.1,4.7,5.9,4.7c0.5,0,1-0.1,1.5-0.1
	c1.6-0.4,3-1.4,3.8-2.8c0.8-1.4,1.1-3,0.7-4.7C41.8,30.8,39.3,28.9,36.4,28.9z M38.9,36.5c-0.4,0.7-1.1,1.2-1.8,1.3
	c-1.6,0.4-3.2-0.6-3.6-2.1c-0.4-1.6,0.5-3.1,2.1-3.6c0.3-0.1,0.4-0.1,0.7-0.1c1.3,0,2.5,0.9,2.9,2.2C39.5,35.1,39.4,35.9,38.9,36.5z
	"/>
<path fill="#595959" d="M51.9,22.8c-0.5,0-1,0.1-1.5,0.1c-3.3,0.8-5.3,4.1-4.5,7.4c0.7,2.7,3.1,4.7,5.9,4.7c0.5,0,1-0.1,1.5-0.1
	c1.6-0.4,3-1.4,3.8-2.8c0.8-1.4,1.1-3,0.7-4.7C57.2,24.7,54.8,22.8,51.9,22.8z M54.4,30.4c-0.4,0.7-1.1,1.2-1.8,1.3
	c-1.6,0.4-3.2-0.6-3.6-2.1c-0.4-1.6,0.5-3.1,2.1-3.6c0.3-0.1,0.4-0.1,0.7-0.1c1.3,0,2.5,0.9,2.9,2.2C55,29,54.9,29.8,54.4,30.4z"/>
</svg>
