<?xml version="1.0" encoding="utf-8"?>
<!-- Generator: Adobe Illustrator 16.0.0, SVG Export Plug-In . SVG Version: 6.00 Build 0)  -->
<!DOCTYPE svg PUBLIC "-//W3C//DTD SVG 1.1//EN" "http://www.w3.org/Graphics/SVG/1.1/DTD/svg11.dtd">
<svg version="1.1" id="Layer_1" xmlns="http://www.w3.org/2000/svg" xmlns:xlink="http://www.w3.org/1999/xlink" x="0px" y="0px"
	 width="100px" height="100px" viewBox="0 0 100 100" enable-background="new 0 0 100 100" xml:space="preserve">
<path fill="#595959" d="M78.183,81.567c-0.296,0-0.596-0.054-0.886-0.168L45.899,69.055c-0.309-0.124-0.59-0.306-0.827-0.544
	l-23.99-23.989c-0.946-0.947-0.946-2.481,0-3.428c0.947-0.947,2.481-0.947,3.427,0l23.633,23.633l27.162,10.68L64.629,48.248
	L40.995,24.607c-0.946-0.946-0.946-2.481,0-3.427c0.95-0.947,2.484-0.947,3.428,0l23.989,23.997
	c0.239,0.236,0.421,0.517,0.544,0.827l12.243,31.147c0.295,0.752,0.197,1.597-0.258,2.263l-0.76,1.105
	C79.716,81.192,78.963,81.567,78.183,81.567z"/>
<path fill="#595959" d="M65.813,76.702c-0.622,0-1.241-0.238-1.714-0.71c-0.947-0.948-0.947-2.481,0-3.429l8.365-8.362
	c0.947-0.95,2.481-0.944,3.429,0c0.945,0.946,0.945,2.48,0,3.426l-8.367,8.365C67.052,76.464,66.431,76.702,65.813,76.702z"/>
<path fill="#595959" d="M66.699,46.891"/>
<path fill="#595959" d="M46.787,69.221c-0.623,0-1.24-0.235-1.715-0.71c-0.946-0.945-0.946-2.482,0-3.427
	c1.639-1.635,2.948-2.093,4.002-2.461c0.823-0.287,1.32-0.462,2.17-1.313c0.85-0.853,1.023-1.349,1.311-2.169
	c0.368-1.054,0.826-2.365,2.463-4.005c1.635-1.632,2.944-2.091,4-2.461c0.827-0.292,1.322-0.467,2.177-1.323
	c0.857-0.858,1.033-1.354,1.323-2.176c0.372-1.055,0.83-2.366,2.472-4.002c0.945-0.944,2.479-0.944,3.426,0.006
	c0.944,0.947,0.944,2.48-0.007,3.428c-0.852,0.853-1.028,1.347-1.314,2.172c-0.374,1.054-0.832,2.365-2.472,4.002
	c-1.633,1.636-2.942,2.094-3.999,2.468c-0.795,0.281-1.323,0.463-2.181,1.319c-0.853,0.853-1.034,1.379-1.313,2.174
	c-0.369,1.051-0.826,2.361-2.459,3.997c-1.634,1.634-2.946,2.091-3.997,2.461c-0.795,0.277-1.323,0.461-2.174,1.313
	C48.027,68.985,47.406,69.221,46.787,69.221z"/>
<path fill="#595959" d="M56.732,59.274c-0.621,0-1.239-0.236-1.714-0.71L34.532,38.077c-0.947-0.947-0.947-2.481,0-3.428
	c0.947-0.947,2.481-0.947,3.427,0l20.488,20.488c0.947,0.947,0.947,2.48,0,3.427C57.975,59.038,57.354,59.274,56.732,59.274z"/>
</svg>
